<?xml version="1.0" encoding="utf-8" standalone="no"?>
<!DOCTYPE svg PUBLIC "-//W3C//DTD SVG 1.1//EN"
  "http://www.w3.org/Graphics/SVG/1.1/DTD/svg11.dtd">
<svg xmlns:xlink="http://www.w3.org/1999/xlink" width="349.116875pt" height="266.704505pt" viewBox="0 0 349.116875 266.704505" xmlns="http://www.w3.org/2000/svg" version="1.1">
 <metadata>
  <rdf:RDF xmlns:dc="http://purl.org/dc/elements/1.1/" xmlns:cc="http://creativecommons.org/ns#" xmlns:rdf="http://www.w3.org/1999/02/22-rdf-syntax-ns#">
   <cc:Work>
    <dc:type rdf:resource="http://purl.org/dc/dcmitype/StillImage"/>
    <dc:date>2026-04-24T19:38:50.696366</dc:date>
    <dc:format>image/svg+xml</dc:format>
    <dc:creator>
     <cc:Agent>
      <dc:title>Matplotlib v3.10.3, https://matplotlib.org/</dc:title>
     </cc:Agent>
    </dc:creator>
   </cc:Work>
  </rdf:RDF>
 </metadata>
 <defs>
  <style type="text/css">*{stroke-linejoin: round; stroke-linecap: butt}</style>
 </defs>
 <g id="figure_1">
  <g id="patch_1">
   <path d="M 0 266.704505 
L 349.116875 266.704505 
L 349.116875 0 
L 0 0 
z
" style="fill: #ffffff"/>
  </g>
  <g id="axes_1">
   <g id="patch_2">
    <path d="M 38.616875 234.31263 
L 345.516875 234.31263 
L 345.516875 23.64063 
L 38.616875 23.64063 
z
" style="fill: #ffffff"/>
   </g>
   <g id="matplotlib.axis_1">
    <g id="xtick_1">
     <g id="line2d_1">
      <defs>
       <path id="m46ebb3b68a" d="M 0 0 
L 0 -3.5 
" style="stroke: #000000; stroke-width: 0.8"/>
      </defs>
      <g>
       <use xlink:href="#m46ebb3b68a" x="38.616875" y="234.31263" style="stroke: #000000; stroke-width: 0.8"/>
      </g>
     </g>
     <g id="text_1">
      <!-- 0 -->
      <g transform="translate(35.435625 245.411067) scale(0.1 -0.1)">
       <defs>
        <path id="DejaVuSerif-30" d="M 2034 219 
Q 2513 219 2750 744 
Q 2988 1269 2988 2328 
Q 2988 3391 2750 3916 
Q 2513 4441 2034 4441 
Q 1556 4441 1318 3916 
Q 1081 3391 1081 2328 
Q 1081 1269 1318 744 
Q 1556 219 2034 219 
z
M 2034 -91 
Q 1275 -91 848 546 
Q 422 1184 422 2328 
Q 422 3475 848 4112 
Q 1275 4750 2034 4750 
Q 2797 4750 3222 4112 
Q 3647 3475 3647 2328 
Q 3647 1184 3222 546 
Q 2797 -91 2034 -91 
z
" transform="scale(0.015625)"/>
       </defs>
       <use xlink:href="#DejaVuSerif-30"/>
      </g>
     </g>
    </g>
    <g id="xtick_2">
     <g id="line2d_2">
      <g>
       <use xlink:href="#m46ebb3b68a" x="79.745259" y="234.31263" style="stroke: #000000; stroke-width: 0.8"/>
      </g>
     </g>
     <g id="text_2">
      <!-- 1 -->
      <g transform="translate(76.564009 245.411067) scale(0.1 -0.1)">
       <defs>
        <path id="DejaVuSerif-31" d="M 909 0 
L 909 331 
L 1722 331 
L 1722 4213 
L 781 3603 
L 781 4013 
L 1919 4750 
L 2350 4750 
L 2350 331 
L 3163 331 
L 3163 0 
L 909 0 
z
" transform="scale(0.015625)"/>
       </defs>
       <use xlink:href="#DejaVuSerif-31"/>
      </g>
     </g>
    </g>
    <g id="xtick_3">
     <g id="line2d_3">
      <g>
       <use xlink:href="#m46ebb3b68a" x="120.873643" y="234.31263" style="stroke: #000000; stroke-width: 0.8"/>
      </g>
     </g>
     <g id="text_3">
      <!-- 2 -->
      <g transform="translate(117.692393 245.411067) scale(0.1 -0.1)">
       <defs>
        <path id="DejaVuSerif-32" d="M 819 3553 
L 469 3553 
L 469 4384 
Q 803 4563 1142 4656 
Q 1481 4750 1806 4750 
Q 2534 4750 2956 4397 
Q 3378 4044 3378 3438 
Q 3378 2753 2422 1800 
Q 2347 1728 2309 1691 
L 1131 513 
L 3078 513 
L 3078 1088 
L 3444 1088 
L 3444 0 
L 434 0 
L 434 341 
L 1850 1753 
Q 2319 2222 2519 2614 
Q 2719 3006 2719 3438 
Q 2719 3909 2473 4175 
Q 2228 4441 1797 4441 
Q 1350 4441 1106 4219 
Q 863 3997 819 3553 
z
" transform="scale(0.015625)"/>
       </defs>
       <use xlink:href="#DejaVuSerif-32"/>
      </g>
     </g>
    </g>
    <g id="xtick_4">
     <g id="line2d_4">
      <g>
       <use xlink:href="#m46ebb3b68a" x="162.002026" y="234.31263" style="stroke: #000000; stroke-width: 0.8"/>
      </g>
     </g>
     <g id="text_4">
      <!-- 3 -->
      <g transform="translate(158.820776 245.411067) scale(0.1 -0.1)">
       <defs>
        <path id="DejaVuSerif-33" d="M 622 4469 
Q 988 4606 1323 4678 
Q 1659 4750 1953 4750 
Q 2638 4750 3022 4454 
Q 3406 4159 3406 3634 
Q 3406 3213 3140 2930 
Q 2875 2647 2388 2547 
Q 2963 2466 3280 2130 
Q 3597 1794 3597 1259 
Q 3597 606 3158 257 
Q 2719 -91 1894 -91 
Q 1528 -91 1179 -12 
Q 831 66 488 225 
L 488 1131 
L 838 1131 
Q 869 681 1141 450 
Q 1413 219 1906 219 
Q 2384 219 2661 495 
Q 2938 772 2938 1253 
Q 2938 1803 2653 2086 
Q 2369 2369 1819 2369 
L 1522 2369 
L 1522 2688 
L 1678 2688 
Q 2225 2688 2498 2914 
Q 2772 3141 2772 3597 
Q 2772 4006 2547 4223 
Q 2322 4441 1900 4441 
Q 1478 4441 1245 4241 
Q 1013 4041 972 3647 
L 622 3647 
L 622 4469 
z
" transform="scale(0.015625)"/>
       </defs>
       <use xlink:href="#DejaVuSerif-33"/>
      </g>
     </g>
    </g>
    <g id="xtick_5">
     <g id="line2d_5">
      <g>
       <use xlink:href="#m46ebb3b68a" x="203.13041" y="234.31263" style="stroke: #000000; stroke-width: 0.8"/>
      </g>
     </g>
     <g id="text_5">
      <!-- 4 -->
      <g transform="translate(199.94916 245.411067) scale(0.1 -0.1)">
       <defs>
        <path id="DejaVuSerif-34" d="M 2234 1581 
L 2234 4063 
L 641 1581 
L 2234 1581 
z
M 3609 0 
L 1484 0 
L 1484 331 
L 2234 331 
L 2234 1247 
L 197 1247 
L 197 1588 
L 2241 4750 
L 2859 4750 
L 2859 1581 
L 3750 1581 
L 3750 1247 
L 2859 1247 
L 2859 331 
L 3609 331 
L 3609 0 
z
" transform="scale(0.015625)"/>
       </defs>
       <use xlink:href="#DejaVuSerif-34"/>
      </g>
     </g>
    </g>
    <g id="xtick_6">
     <g id="line2d_6">
      <g>
       <use xlink:href="#m46ebb3b68a" x="244.258794" y="234.31263" style="stroke: #000000; stroke-width: 0.8"/>
      </g>
     </g>
     <g id="text_6">
      <!-- 5 -->
      <g transform="translate(241.077544 245.411067) scale(0.1 -0.1)">
       <defs>
        <path id="DejaVuSerif-35" d="M 3219 4666 
L 3219 4153 
L 1081 4153 
L 1081 2816 
Q 1244 2928 1461 2984 
Q 1678 3041 1947 3041 
Q 2703 3041 3140 2622 
Q 3578 2203 3578 1478 
Q 3578 738 3136 323 
Q 2694 -91 1894 -91 
Q 1572 -91 1234 -12 
Q 897 66 544 225 
L 544 1131 
L 897 1131 
Q 925 688 1179 453 
Q 1434 219 1894 219 
Q 2388 219 2653 544 
Q 2919 869 2919 1478 
Q 2919 2084 2655 2407 
Q 2391 2731 1894 2731 
Q 1613 2731 1398 2631 
Q 1184 2531 1019 2322 
L 750 2322 
L 750 4666 
L 3219 4666 
z
" transform="scale(0.015625)"/>
       </defs>
       <use xlink:href="#DejaVuSerif-35"/>
      </g>
     </g>
    </g>
    <g id="xtick_7">
     <g id="line2d_7">
      <g>
       <use xlink:href="#m46ebb3b68a" x="285.387178" y="234.31263" style="stroke: #000000; stroke-width: 0.8"/>
      </g>
     </g>
     <g id="text_7">
      <!-- 6 -->
      <g transform="translate(282.205928 245.411067) scale(0.1 -0.1)">
       <defs>
        <path id="DejaVuSerif-36" d="M 2094 219 
Q 2534 219 2771 542 
Q 3009 866 3009 1472 
Q 3009 2078 2771 2401 
Q 2534 2725 2094 2725 
Q 1647 2725 1412 2412 
Q 1178 2100 1178 1509 
Q 1178 888 1415 553 
Q 1653 219 2094 219 
z
M 1075 2569 
Q 1288 2803 1556 2918 
Q 1825 3034 2163 3034 
Q 2859 3034 3264 2615 
Q 3669 2197 3669 1472 
Q 3669 763 3233 336 
Q 2797 -91 2069 -91 
Q 1278 -91 853 498 
Q 428 1088 428 2181 
Q 428 3406 931 4078 
Q 1434 4750 2350 4750 
Q 2597 4750 2869 4703 
Q 3141 4656 3425 4563 
L 3425 3794 
L 3072 3794 
Q 3034 4109 2831 4275 
Q 2628 4441 2284 4441 
Q 1678 4441 1381 3981 
Q 1084 3522 1075 2569 
z
" transform="scale(0.015625)"/>
       </defs>
       <use xlink:href="#DejaVuSerif-36"/>
      </g>
     </g>
    </g>
    <g id="xtick_8">
     <g id="line2d_8">
      <g>
       <use xlink:href="#m46ebb3b68a" x="326.515562" y="234.31263" style="stroke: #000000; stroke-width: 0.8"/>
      </g>
     </g>
     <g id="text_8">
      <!-- 7 -->
      <g transform="translate(323.334312 245.411067) scale(0.1 -0.1)">
       <defs>
        <path id="DejaVuSerif-37" d="M 3609 4347 
L 1784 0 
L 1319 0 
L 3059 4153 
L 903 4153 
L 903 3578 
L 538 3578 
L 538 4666 
L 3609 4666 
L 3609 4347 
z
" transform="scale(0.015625)"/>
       </defs>
       <use xlink:href="#DejaVuSerif-37"/>
      </g>
     </g>
    </g>
    <g id="text_9">
     <!-- Time (min) -->
     <g transform="translate(158.842813 260.60888) scale(0.12 -0.12)">
      <defs>
       <path id="DejaVuSerif-54" d="M 1222 0 
L 1222 331 
L 1819 331 
L 1819 4294 
L 447 4294 
L 447 3566 
L 63 3566 
L 63 4666 
L 4206 4666 
L 4206 3566 
L 3822 3566 
L 3822 4294 
L 2450 4294 
L 2450 331 
L 3047 331 
L 3047 0 
L 1222 0 
z
" transform="scale(0.015625)"/>
       <path id="DejaVuSerif-69" d="M 622 4353 
Q 622 4497 726 4603 
Q 831 4709 978 4709 
Q 1122 4709 1226 4603 
Q 1331 4497 1331 4353 
Q 1331 4206 1228 4103 
Q 1125 4000 978 4000 
Q 831 4000 726 4103 
Q 622 4206 622 4353 
z
M 1356 331 
L 1900 331 
L 1900 0 
L 231 0 
L 231 331 
L 781 331 
L 781 2988 
L 231 2988 
L 231 3322 
L 1356 3322 
L 1356 331 
z
" transform="scale(0.015625)"/>
       <path id="DejaVuSerif-6d" d="M 3316 2675 
Q 3481 3041 3739 3227 
Q 3997 3413 4341 3413 
Q 4863 3413 5119 3089 
Q 5375 2766 5375 2113 
L 5375 331 
L 5894 331 
L 5894 0 
L 4300 0 
L 4300 331 
L 4800 331 
L 4800 2047 
Q 4800 2556 4650 2772 
Q 4500 2988 4153 2988 
Q 3769 2988 3567 2697 
Q 3366 2406 3366 1850 
L 3366 331 
L 3866 331 
L 3866 0 
L 2291 0 
L 2291 331 
L 2791 331 
L 2791 2069 
Q 2791 2566 2641 2777 
Q 2491 2988 2144 2988 
Q 1759 2988 1557 2697 
Q 1356 2406 1356 1850 
L 1356 331 
L 1856 331 
L 1856 0 
L 263 0 
L 263 331 
L 781 331 
L 781 2994 
L 231 2994 
L 231 3322 
L 1356 3322 
L 1356 2731 
Q 1516 3063 1762 3238 
Q 2009 3413 2322 3413 
Q 2709 3413 2968 3220 
Q 3228 3028 3316 2675 
z
" transform="scale(0.015625)"/>
       <path id="DejaVuSerif-65" d="M 3469 1600 
L 991 1600 
L 991 1575 
Q 991 903 1244 561 
Q 1497 219 1991 219 
Q 2369 219 2611 417 
Q 2853 616 2950 1006 
L 3413 1006 
Q 3275 459 2904 184 
Q 2534 -91 1931 -91 
Q 1203 -91 761 389 
Q 319 869 319 1663 
Q 319 2450 753 2931 
Q 1188 3413 1894 3413 
Q 2647 3413 3050 2948 
Q 3453 2484 3469 1600 
z
M 2791 1931 
Q 2772 2513 2545 2808 
Q 2319 3103 1894 3103 
Q 1497 3103 1269 2806 
Q 1041 2509 991 1931 
L 2791 1931 
z
" transform="scale(0.015625)"/>
       <path id="DejaVuSerif-20" transform="scale(0.015625)"/>
       <path id="DejaVuSerif-28" d="M 2041 -997 
Q 1281 -656 893 83 
Q 506 822 506 1931 
Q 506 3044 893 3783 
Q 1281 4522 2041 4863 
L 2041 4556 
Q 1559 4225 1350 3623 
Q 1141 3022 1141 1931 
Q 1141 844 1350 242 
Q 1559 -359 2041 -691 
L 2041 -997 
z
" transform="scale(0.015625)"/>
       <path id="DejaVuSerif-6e" d="M 263 0 
L 263 331 
L 781 331 
L 781 2988 
L 231 2988 
L 231 3322 
L 1356 3322 
L 1356 2731 
Q 1516 3069 1770 3241 
Q 2025 3413 2363 3413 
Q 2913 3413 3172 3097 
Q 3431 2781 3431 2113 
L 3431 331 
L 3944 331 
L 3944 0 
L 2356 0 
L 2356 331 
L 2853 331 
L 2853 1931 
Q 2853 2541 2703 2767 
Q 2553 2994 2175 2994 
Q 1775 2994 1565 2701 
Q 1356 2409 1356 1850 
L 1356 331 
L 1856 331 
L 1856 0 
L 263 0 
z
" transform="scale(0.015625)"/>
       <path id="DejaVuSerif-29" d="M 453 -997 
L 453 -691 
Q 934 -359 1145 242 
Q 1356 844 1356 1931 
Q 1356 3022 1145 3623 
Q 934 4225 453 4556 
L 453 4863 
Q 1216 4522 1603 3783 
Q 1991 3044 1991 1931 
Q 1991 822 1603 83 
Q 1216 -656 453 -997 
z
" transform="scale(0.015625)"/>
      </defs>
      <use xlink:href="#DejaVuSerif-54"/>
      <use xlink:href="#DejaVuSerif-69" transform="translate(66.699219 0)"/>
      <use xlink:href="#DejaVuSerif-6d" transform="translate(98.681641 0)"/>
      <use xlink:href="#DejaVuSerif-65" transform="translate(193.505859 0)"/>
      <use xlink:href="#DejaVuSerif-20" transform="translate(252.685547 0)"/>
      <use xlink:href="#DejaVuSerif-28" transform="translate(284.472656 0)"/>
      <use xlink:href="#DejaVuSerif-6d" transform="translate(323.486328 0)"/>
      <use xlink:href="#DejaVuSerif-69" transform="translate(418.310547 0)"/>
      <use xlink:href="#DejaVuSerif-6e" transform="translate(450.292969 0)"/>
      <use xlink:href="#DejaVuSerif-29" transform="translate(514.697266 0)"/>
     </g>
    </g>
   </g>
   <g id="matplotlib.axis_2">
    <g id="ytick_1">
     <g id="line2d_9">
      <defs>
       <path id="m9d63f53a7a" d="M 0 0 
L 3.5 0 
" style="stroke: #000000; stroke-width: 0.8"/>
      </defs>
      <g>
       <use xlink:href="#m9d63f53a7a" x="38.616875" y="234.31263" style="stroke: #000000; stroke-width: 0.8"/>
      </g>
     </g>
     <g id="text_10">
      <!-- 0.0 -->
      <g transform="translate(19.21375 238.111849) scale(0.1 -0.1)">
       <defs>
        <path id="DejaVuSerif-2e" d="M 603 325 
Q 603 500 722 622 
Q 841 744 1019 744 
Q 1191 744 1312 622 
Q 1434 500 1434 325 
Q 1434 153 1312 31 
Q 1191 -91 1019 -91 
Q 841 -91 722 29 
Q 603 150 603 325 
z
" transform="scale(0.015625)"/>
       </defs>
       <use xlink:href="#DejaVuSerif-30"/>
       <use xlink:href="#DejaVuSerif-2e" transform="translate(63.623047 0)"/>
       <use xlink:href="#DejaVuSerif-30" transform="translate(95.410156 0)"/>
      </g>
     </g>
    </g>
    <g id="ytick_2">
     <g id="line2d_10">
      <g>
       <use xlink:href="#m9d63f53a7a" x="38.616875" y="192.17823" style="stroke: #000000; stroke-width: 0.8"/>
      </g>
     </g>
     <g id="text_11">
      <!-- 0.2 -->
      <g transform="translate(19.21375 195.977449) scale(0.1 -0.1)">
       <use xlink:href="#DejaVuSerif-30"/>
       <use xlink:href="#DejaVuSerif-2e" transform="translate(63.623047 0)"/>
       <use xlink:href="#DejaVuSerif-32" transform="translate(95.410156 0)"/>
      </g>
     </g>
    </g>
    <g id="ytick_3">
     <g id="line2d_11">
      <g>
       <use xlink:href="#m9d63f53a7a" x="38.616875" y="150.04383" style="stroke: #000000; stroke-width: 0.8"/>
      </g>
     </g>
     <g id="text_12">
      <!-- 0.4 -->
      <g transform="translate(19.21375 153.843049) scale(0.1 -0.1)">
       <use xlink:href="#DejaVuSerif-30"/>
       <use xlink:href="#DejaVuSerif-2e" transform="translate(63.623047 0)"/>
       <use xlink:href="#DejaVuSerif-34" transform="translate(95.410156 0)"/>
      </g>
     </g>
    </g>
    <g id="ytick_4">
     <g id="line2d_12">
      <g>
       <use xlink:href="#m9d63f53a7a" x="38.616875" y="107.90943" style="stroke: #000000; stroke-width: 0.8"/>
      </g>
     </g>
     <g id="text_13">
      <!-- 0.6 -->
      <g transform="translate(19.21375 111.708649) scale(0.1 -0.1)">
       <use xlink:href="#DejaVuSerif-30"/>
       <use xlink:href="#DejaVuSerif-2e" transform="translate(63.623047 0)"/>
       <use xlink:href="#DejaVuSerif-36" transform="translate(95.410156 0)"/>
      </g>
     </g>
    </g>
    <g id="ytick_5">
     <g id="line2d_13">
      <g>
       <use xlink:href="#m9d63f53a7a" x="38.616875" y="65.77503" style="stroke: #000000; stroke-width: 0.8"/>
      </g>
     </g>
     <g id="text_14">
      <!-- 0.8 -->
      <g transform="translate(19.21375 69.574249) scale(0.1 -0.1)">
       <defs>
        <path id="DejaVuSerif-38" d="M 2981 1275 
Q 2981 1775 2732 2051 
Q 2484 2328 2034 2328 
Q 1584 2328 1336 2051 
Q 1088 1775 1088 1275 
Q 1088 772 1336 495 
Q 1584 219 2034 219 
Q 2484 219 2732 495 
Q 2981 772 2981 1275 
z
M 2853 3541 
Q 2853 3966 2637 4203 
Q 2422 4441 2034 4441 
Q 1650 4441 1433 4203 
Q 1216 3966 1216 3541 
Q 1216 3113 1433 2875 
Q 1650 2638 2034 2638 
Q 2422 2638 2637 2875 
Q 2853 3113 2853 3541 
z
M 2516 2484 
Q 3047 2413 3344 2092 
Q 3641 1772 3641 1275 
Q 3641 619 3225 264 
Q 2809 -91 2034 -91 
Q 1263 -91 845 264 
Q 428 619 428 1275 
Q 428 1772 725 2092 
Q 1022 2413 1556 2484 
Q 1084 2569 832 2842 
Q 581 3116 581 3541 
Q 581 4103 968 4426 
Q 1356 4750 2034 4750 
Q 2713 4750 3100 4426 
Q 3488 4103 3488 3541 
Q 3488 3116 3236 2842 
Q 2984 2569 2516 2484 
z
" transform="scale(0.015625)"/>
       </defs>
       <use xlink:href="#DejaVuSerif-30"/>
       <use xlink:href="#DejaVuSerif-2e" transform="translate(63.623047 0)"/>
       <use xlink:href="#DejaVuSerif-38" transform="translate(95.410156 0)"/>
      </g>
     </g>
    </g>
    <g id="ytick_6">
     <g id="line2d_14">
      <g>
       <use xlink:href="#m9d63f53a7a" x="38.616875" y="23.64063" style="stroke: #000000; stroke-width: 0.8"/>
      </g>
     </g>
     <g id="text_15">
      <!-- 1.0 -->
      <g transform="translate(19.21375 27.439849) scale(0.1 -0.1)">
       <use xlink:href="#DejaVuSerif-31"/>
       <use xlink:href="#DejaVuSerif-2e" transform="translate(63.623047 0)"/>
       <use xlink:href="#DejaVuSerif-30" transform="translate(95.410156 0)"/>
      </g>
     </g>
    </g>
    <g id="text_16">
     <!-- $P(\mathrm{ch\,4})$ -->
     <g transform="translate(12.718125 149.19663) rotate(-90) scale(0.12 -0.12)">
      <defs>
       <path id="DejaVuSans-Oblique-50" d="M 1081 4666 
L 2541 4666 
Q 3178 4666 3512 4369 
Q 3847 4072 3847 3500 
Q 3847 2731 3353 2303 
Q 2859 1875 1966 1875 
L 1172 1875 
L 806 0 
L 172 0 
L 1081 4666 
z
M 1613 4147 
L 1275 2394 
L 2069 2394 
Q 2606 2394 2893 2669 
Q 3181 2944 3181 3456 
Q 3181 3784 2986 3965 
Q 2791 4147 2438 4147 
L 1613 4147 
z
" transform="scale(0.015625)"/>
       <path id="DejaVuSans-28" d="M 1984 4856 
Q 1566 4138 1362 3434 
Q 1159 2731 1159 2009 
Q 1159 1288 1364 580 
Q 1569 -128 1984 -844 
L 1484 -844 
Q 1016 -109 783 600 
Q 550 1309 550 2009 
Q 550 2706 781 3412 
Q 1013 4119 1484 4856 
L 1984 4856 
z
" transform="scale(0.015625)"/>
       <path id="DejaVuSans-63" d="M 3122 3366 
L 3122 2828 
Q 2878 2963 2633 3030 
Q 2388 3097 2138 3097 
Q 1578 3097 1268 2742 
Q 959 2388 959 1747 
Q 959 1106 1268 751 
Q 1578 397 2138 397 
Q 2388 397 2633 464 
Q 2878 531 3122 666 
L 3122 134 
Q 2881 22 2623 -34 
Q 2366 -91 2075 -91 
Q 1284 -91 818 406 
Q 353 903 353 1747 
Q 353 2603 823 3093 
Q 1294 3584 2113 3584 
Q 2378 3584 2631 3529 
Q 2884 3475 3122 3366 
z
" transform="scale(0.015625)"/>
       <path id="DejaVuSans-68" d="M 3513 2113 
L 3513 0 
L 2938 0 
L 2938 2094 
Q 2938 2591 2744 2837 
Q 2550 3084 2163 3084 
Q 1697 3084 1428 2787 
Q 1159 2491 1159 1978 
L 1159 0 
L 581 0 
L 581 4863 
L 1159 4863 
L 1159 2956 
Q 1366 3272 1645 3428 
Q 1925 3584 2291 3584 
Q 2894 3584 3203 3211 
Q 3513 2838 3513 2113 
z
" transform="scale(0.015625)"/>
       <path id="DejaVuSans-34" d="M 2419 4116 
L 825 1625 
L 2419 1625 
L 2419 4116 
z
M 2253 4666 
L 3047 4666 
L 3047 1625 
L 3713 1625 
L 3713 1100 
L 3047 1100 
L 3047 0 
L 2419 0 
L 2419 1100 
L 313 1100 
L 313 1709 
L 2253 4666 
z
" transform="scale(0.015625)"/>
       <path id="DejaVuSans-29" d="M 513 4856 
L 1013 4856 
Q 1481 4119 1714 3412 
Q 1947 2706 1947 2009 
Q 1947 1309 1714 600 
Q 1481 -109 1013 -844 
L 513 -844 
Q 928 -128 1133 580 
Q 1338 1288 1338 2009 
Q 1338 2731 1133 3434 
Q 928 4138 513 4856 
z
" transform="scale(0.015625)"/>
      </defs>
      <use xlink:href="#DejaVuSans-Oblique-50" transform="translate(0 0.015625)"/>
      <use xlink:href="#DejaVuSans-28" transform="translate(60.302734 0.015625)"/>
      <use xlink:href="#DejaVuSans-63" transform="translate(99.316406 0.015625)"/>
      <use xlink:href="#DejaVuSans-68" transform="translate(154.296875 0.015625)"/>
      <use xlink:href="#DejaVuSans-34" transform="translate(233.911458 0.015625)"/>
      <use xlink:href="#DejaVuSans-29" transform="translate(297.534504 0.015625)"/>
     </g>
    </g>
   </g>
   <g id="line2d_15">
    <path d="M 38.616875 206.062629 
L 38.771106 205.86843 
L 38.822517 205.909134 
L 38.856791 205.835004 
L 38.908201 205.863372 
L 38.976748 205.800013 
L 39.165253 205.705538 
L 39.45658 205.512488 
L 39.5594 205.453948 
L 39.593674 205.540831 
L 39.765042 205.698533 
L 39.782179 205.668962 
L 40.056368 205.690732 
L 40.26201 205.871156 
L 40.279147 205.853278 
L 40.381968 205.901708 
L 40.793252 206.207365 
L 40.96462 206.28764 
L 42.301293 207.538354 
L 42.541208 207.890859 
L 43.843607 209.94267 
L 44.049249 210.354699 
L 44.15207 210.572709 
L 44.837543 211.993854 
L 45.060322 212.267935 
L 45.540153 213.052879 
L 45.848616 213.354473 
L 46.122805 213.596868 
L 46.362721 213.941803 
L 46.379857 213.915961 
L 46.791141 214.31109 
L 46.825415 214.278811 
L 46.876825 214.372404 
L 46.96251 214.491296 
L 46.996783 214.461614 
L 47.116741 214.462465 
L 47.442341 214.557891 
L 47.493751 214.585609 
L 47.545162 214.525607 
L 47.647983 214.515439 
L 47.665119 214.529316 
L 47.922172 214.453118 
L 48.04213 214.476121 
L 48.247772 214.397433 
L 48.264908 214.354657 
L 48.350593 214.419935 
L 48.47055 214.411226 
L 48.487687 214.45977 
L 48.624782 214.499032 
L 49.12175 214.50909 
L 49.275981 214.462841 
L 49.293118 214.493953 
L 49.361665 214.41667 
L 49.481623 214.362272 
L 49.49876 214.399235 
L 50.081412 214.461126 
L 50.269917 214.578092 
L 50.526969 214.567438 
L 50.681201 214.516894 
L 50.869706 214.662436 
L 51.503769 214.705485 
L 51.726547 214.763263 
L 51.863642 214.717873 
L 52.223515 214.796709 
L 52.377747 214.782708 
L 52.703346 214.807964 
L 52.754757 214.8535 
L 52.823304 214.809621 
L 52.994673 214.941861 
L 53.011809 214.928129 
L 53.268862 214.923838 
L 53.525914 215.071135 
L 53.731556 215.109801 
L 53.885787 215.224042 
L 54.005745 215.255317 
L 54.022882 215.221794 
L 54.057156 215.164331 
L 54.159977 215.203542 
L 54.262798 215.212642 
L 54.417029 215.293893 
L 54.639808 215.443485 
L 54.879723 215.440812 
L 54.965408 215.412987 
L 54.982544 215.39201 
L 55.462376 215.21487 
L 55.633744 215.174713 
L 56.113575 214.882943 
L 56.901869 214.627718 
L 57.090374 214.629756 
L 57.158921 214.652555 
L 57.176058 214.688329 
L 57.227469 214.716308 
L 57.278879 214.673646 
L 57.501658 214.655003 
L 57.827258 214.649404 
L 58.067173 214.556884 
L 58.187131 214.50852 
L 58.427047 214.513016 
L 58.701236 214.358746 
L 58.889741 214.2951 
L 59.095383 214.17733 
L 59.266751 214.038552 
L 59.48953 213.922398 
L 59.678035 213.774743 
L 60.072182 213.621582 
L 60.19214 213.661427 
L 61.922959 213.527635 
L 61.940096 213.482243 
L 62.02578 213.531939 
L 62.145738 213.529849 
L 62.385653 213.340732 
L 62.471338 213.291592 
L 62.625569 213.2457 
L 62.642706 213.262978 
L 62.745527 213.210925 
L 62.899758 213.101539 
L 63.002579 213.173796 
L 63.036853 213.145432 
L 63.379589 213.043485 
L 63.396726 213.053841 
L 63.431 212.973447 
L 63.705189 212.709127 
L 63.790873 212.704206 
L 63.80801 212.66358 
L 63.996515 212.601445 
L 64.030789 212.616115 
L 64.082199 212.5462 
L 64.253568 212.514403 
L 64.270704 212.556397 
L 64.390662 212.584965 
L 65.007588 212.344037 
L 65.401735 211.926232 
L 65.436009 211.959826 
L 65.487419 211.887023 
L 65.727335 211.751226 
L 65.761608 211.769329 
L 65.813019 211.703757 
L 65.950113 211.516637 
L 65.984387 211.537133 
L 69.069016 209.493301 
L 69.411752 209.293949 
L 69.565984 209.118698 
L 69.651668 209.127508 
L 69.668805 209.112321 
L 69.85731 209.058565 
L 69.942994 209.021224 
L 70.131499 208.878676 
L 70.285731 208.828396 
L 70.508509 208.796615 
L 70.645604 208.857676 
L 70.731288 208.788803 
L 70.868383 208.814764 
L 71.074025 208.798431 
L 71.365351 208.825868 
L 71.536719 208.747725 
L 71.708087 208.677667 
L 71.810908 208.624614 
L 71.896592 208.585685 
L 72.033687 208.498048 
L 72.187918 208.463853 
L 73.181854 208.484557 
L 73.267538 208.417784 
L 73.301812 208.46134 
L 73.370359 208.505927 
L 73.42177 208.44425 
L 73.541728 208.430628 
L 73.661685 208.440725 
L 73.884464 208.474856 
L 73.970148 208.377707 
L 74.004422 208.413119 
L 74.569937 208.278424 
L 74.587074 208.333045 
L 74.741305 208.416937 
L 74.998358 208.255944 
L 75.152589 208.28478 
L 75.306821 208.229819 
L 75.478189 208.20931 
L 75.683831 208.163755 
L 75.975157 207.948804 
L 76.129388 207.858012 
L 76.146525 207.881707 
L 76.266483 207.83851 
L 76.694904 207.649743 
L 76.917682 207.601174 
L 77.054777 207.585525 
L 77.157598 207.597095 
L 77.174735 207.585848 
L 77.671703 207.564968 
L 77.808797 207.530139 
L 77.894482 207.454414 
L 77.997302 207.43092 
L 78.014439 207.45168 
L 78.031576 207.489562 
L 78.100123 207.390623 
L 78.11726 207.413676 
L 78.134397 207.437701 
L 78.202944 207.347111 
L 78.665639 207.13124 
L 78.991238 206.980746 
L 79.162607 206.998327 
L 79.47107 206.949074 
L 79.488206 206.99346 
L 79.539617 206.918764 
L 79.556754 206.927573 
L 79.830943 206.717985 
L 80.22509 206.611486 
L 80.327911 206.553655 
L 80.362185 206.613018 
L 80.447869 206.563215 
L 80.499279 206.546095 
L 80.55069 206.581902 
L 80.670647 206.505437 
L 80.961973 206.469825 
L 81.064794 206.528559 
L 81.099068 206.505708 
L 81.818815 206.479176 
L 81.955909 206.382794 
L 81.990183 206.374682 
L 82.041594 206.434001 
L 82.195825 206.392932 
L 82.675656 206.066529 
L 82.847024 205.942578 
L 83.018393 206.024421 
L 84.252244 205.733797 
L 84.526433 205.554179 
L 84.560707 205.600598 
L 84.629254 205.547149 
L 84.800623 205.369349 
L 85.383275 205.268424 
L 85.468959 205.30481 
L 85.486096 205.267295 
L 85.520369 205.182093 
L 85.606054 205.202515 
L 85.674601 205.248632 
L 85.726011 205.178178 
L 86.188706 205.12085 
L 86.411484 204.897028 
L 86.6514 204.779627 
L 86.959863 204.606487 
L 87.045547 204.533013 
L 87.096957 204.579543 
L 87.319736 204.629488 
L 87.473968 204.573076 
L 87.628199 204.652921 
L 87.73102 204.604236 
L 87.748157 204.622174 
L 88.073757 204.681917 
L 88.245125 204.474976 
L 88.467904 204.466154 
L 88.502177 204.399356 
L 88.570725 204.455679 
L 88.75923 204.451085 
L 89.170513 204.176793 
L 89.18765 204.215864 
L 89.444703 204.264878 
L 89.598934 204.265664 
L 89.650345 204.373336 
L 89.718892 204.328456 
L 90.404365 204.208596 
L 90.421502 204.182949 
L 90.472912 204.274484 
L 90.490049 204.270267 
L 90.712828 204.096287 
L 90.747101 204.124285 
L 90.935607 203.939878 
L 91.072701 203.968045 
L 91.106975 203.516971 
L 91.192659 202.734716 
L 91.226933 202.747754 
L 92.272279 202.460407 
L 92.477921 202.187695 
L 92.495058 202.20188 
L 92.75211 202.138722 
L 92.923478 202.127959 
L 93.009163 202.039541 
L 93.043436 202.099346 
L 93.437583 202.101391 
L 93.591815 202.12326 
L 93.797457 201.929026 
L 93.917414 201.947691 
L 93.951688 202.016007 
L 94.020235 201.906066 
L 94.243014 201.731678 
L 94.654298 201.59791 
L 94.825666 201.372571 
L 95.031308 201.453468 
L 95.254087 201.333277 
L 95.682508 201.218038 
L 95.853876 201.187816 
L 96.025244 201.329346 
L 96.213749 201.238684 
L 96.248023 201.252633 
L 96.282296 202.382949 
L 96.402254 202.28267 
L 96.487938 202.319799 
L 96.522212 202.284475 
L 96.796401 202.314161 
L 96.984906 202.205209 
L 97.053454 202.244244 
L 97.104864 202.197947 
L 97.310506 202.186938 
L 97.738927 202.120212 
L 97.824611 202.050501 
L 97.876021 202.092048 
L 98.064526 202.013592 
L 98.081663 202.034198 
L 98.115937 202.089734 
L 98.167347 202.045051 
L 98.253032 201.837202 
L 98.321579 201.856491 
L 98.492947 201.820715 
L 98.630042 201.785901 
L 98.85282 201.696467 
L 98.972778 201.643865 
L 99.109873 201.539452 
L 99.144147 201.615965 
L 99.229831 201.743297 
L 99.281241 201.824514 
L 99.332652 201.742252 
L 99.50402 201.767081 
L 99.521157 201.740574 
L 99.812483 201.674483 
L 99.932441 201.699997 
L 100.052398 201.645733 
L 100.223767 201.494555 
L 100.240903 201.537358 
L 100.25804 201.557725 
L 100.326588 201.46798 
L 100.652187 201.134792 
L 100.926376 201.33018 
L 100.96065 201.377123 
L 101.046334 201.338655 
L 101.200566 201.137018 
L 101.217703 201.163987 
L 101.320523 201.135725 
L 101.543302 200.982208 
L 101.560439 200.997221 
L 101.594713 201.024478 
L 101.628986 200.976027 
L 101.783218 200.81941 
L 101.98886 200.697833 
L 102.091681 200.620243 
L 102.108818 200.634839 
L 102.194502 200.581674 
L 102.245912 200.503775 
L 102.314459 200.567531 
L 103.085617 200.334315 
L 103.256985 200.184083 
L 103.325532 200.130927 
L 103.376943 200.188981 
L 103.599721 200.049421 
L 103.8225 199.910686 
L 103.856774 199.940522 
L 103.908184 199.866222 
L 104.165237 199.731839 
L 104.319468 199.777421 
L 104.576521 199.649555 
L 104.816436 199.848226 
L 105.056352 199.683632 
L 105.947467 199.603754 
L 106.273066 199.218054 
L 106.375887 199.132727 
L 106.547256 199.053965 
L 106.992813 198.904354 
L 107.112771 198.998973 
L 107.129908 198.98286 
L 107.33555 198.948766 
L 107.558328 198.605739 
L 107.798244 198.525485 
L 107.815381 198.558896 
L 107.901065 198.531153 
L 108.003886 198.361062 
L 108.03816 198.408186 
L 108.552264 198.0752 
L 108.672222 197.979865 
L 108.689359 197.997934 
L 109.426242 197.64623 
L 109.683295 197.200784 
L 110.008895 197.050952 
L 110.437315 196.564502 
L 110.62582 196.628804 
L 110.711504 196.474416 
L 110.934283 196.281086 
L 110.985694 196.267311 
L 110.968557 196.304614 
L 111.037104 196.304837 
L 111.311293 196.342378 
L 111.482662 196.345345 
L 112.168135 196.228421 
L 112.750787 195.963686 
L 112.887881 195.930512 
L 113.11066 195.740406 
L 113.470534 195.68357 
L 113.521944 195.721851 
L 113.573354 195.701834 
L 113.693312 195.660868 
L 113.864681 195.641324 
L 114.087459 195.491546 
L 114.207417 195.435382 
L 114.344512 195.390158 
L 114.378785 195.349131 
L 114.447333 195.378297 
L 114.601564 195.463172 
L 114.704385 195.308876 
L 114.738659 195.344072 
L 114.84148 195.336007 
L 114.858616 195.318247 
L 114.875753 195.331819 
L 114.910027 195.246803 
L 115.098532 195.01324 
L 115.149943 195.052206 
L 115.184216 194.972606 
L 115.287037 195.018014 
L 115.458405 195.124154 
L 115.561226 195.17569 
L 115.784005 195.094042 
L 116.126742 194.944657 
L 116.143878 194.966658 
L 116.178152 194.84774 
L 116.503752 194.647084 
L 116.949309 194.598155 
L 116.966446 194.541409 
L 117.05213 194.594832 
L 117.120678 194.616294 
L 117.137814 194.566688 
L 117.309183 194.416272 
L 117.446277 194.501487 
L 117.583372 194.442938 
L 117.737603 194.47135 
L 117.926108 194.453666 
L 118.028929 194.431916 
L 118.046066 194.455476 
L 118.148887 194.50791 
L 118.183161 194.452221 
L 118.474487 194.487903 
L 118.560171 194.475749 
L 118.577308 194.44121 
L 118.971455 194.485396 
L 119.194234 194.418421 
L 119.348465 194.397855 
L 119.365602 194.422627 
L 119.434149 194.339681 
L 119.502696 194.252043 
L 119.571244 194.307558 
L 119.982528 194.281721 
L 120.102485 194.285885 
L 120.325264 194.307456 
L 120.445222 194.372769 
L 120.479496 194.326787 
L 120.770822 194.018723 
L 120.856506 193.995629 
L 120.9936 193.902338 
L 121.130695 193.880035 
L 121.216379 193.967993 
L 121.26779 193.92465 
L 121.953263 193.848068 
L 122.107494 193.723169 
L 122.124631 193.751916 
L 122.176041 193.660716 
L 122.278862 193.532908 
L 122.330273 193.581173 
L 122.467367 193.665415 
L 122.484504 193.633876 
L 122.655873 193.66067 
L 123.529851 193.123613 
L 124.009682 192.866016 
L 124.061092 192.86751 
L 124.078229 192.794171 
L 124.232461 192.799576 
L 124.352418 192.740371 
L 124.540924 192.45266 
L 124.643744 192.539821 
L 124.660881 192.574664 
L 124.712292 192.501316 
L 124.729429 192.499622 
L 124.83225 192.549458 
L 124.969344 192.583281 
L 125.072165 192.49261 
L 125.106439 192.530765 
L 125.123576 192.56817 
L 125.192123 192.512014 
L 125.380628 192.345544 
L 125.414902 192.421064 
L 125.483449 192.30521 
L 125.723365 192.124922 
L 125.757638 192.18996 
L 125.877596 192.167555 
L 125.997554 192.135083 
L 126.014691 192.155852 
L 126.186059 192.111659 
L 126.323153 191.952594 
L 126.34029 191.970123 
L 126.511659 192.020786 
L 126.528795 191.998987 
L 126.957216 191.592109 
L 126.974353 191.625512 
L 127.008627 191.554587 
L 127.0429 191.574899 
L 127.231405 191.421293 
L 127.265679 191.437854 
L 127.299953 191.341137 
L 127.437047 191.290067 
L 127.505595 191.219062 
L 127.574142 191.251861 
L 127.6941 191.172783 
L 127.711236 191.100377 
L 127.814057 191.129074 
L 127.831194 191.14442 
L 127.882605 191.049417 
L 128.088247 191.00164 
L 128.345299 190.864738 
L 128.44812 190.847319 
L 128.585215 190.884293 
L 129.510603 190.666611 
L 129.716245 190.676953 
L 129.870477 190.522168 
L 129.90475 190.54603 
L 129.921887 190.585601 
L 129.939024 190.518367 
L 130.007571 190.509935 
L 130.178939 190.303492 
L 130.213213 190.324974 
L 130.521676 190.40781 
L 131.224286 190.122855 
L 131.327107 190.143493 
L 131.344244 190.113739 
L 131.567022 190.035273 
L 131.721254 189.863526 
L 131.738391 189.874357 
L 131.789801 189.901842 
L 131.824075 189.821391 
L 131.944033 189.786376 
L 132.06399 189.813728 
L 132.321043 189.75148 
L 132.33818 189.770823 
L 132.406727 189.683385 
L 132.441001 189.656887 
L 132.475274 189.709167 
L 132.560958 189.799782 
L 132.595232 189.72004 
L 133.400663 189.473944 
L 133.4178 189.527042 
L 133.46921 189.439449 
L 133.503484 189.442672 
L 133.691989 189.293889 
L 133.931904 189.315785 
L 133.966178 189.349323 
L 134.000452 189.229386 
L 134.617378 188.842784 
L 134.788746 188.612167 
L 134.805883 188.620348 
L 134.942977 188.637328 
L 135.20003 188.363473 
L 135.217166 188.380034 
L 135.285714 188.467198 
L 135.337124 188.419385 
L 135.354261 188.440864 
L 135.388535 188.345666 
L 135.559903 188.280693 
L 135.731271 188.259465 
L 136.074008 188.141347 
L 136.193966 188.251424 
L 136.211102 188.205322 
L 136.468155 188.141854 
L 136.622386 188.032918 
L 136.639523 188.054649 
L 136.845165 188.174082 
L 137.444954 188.033125 
L 137.599185 188.145421 
L 137.616322 188.091138 
L 137.856238 187.978396 
L 138.318932 188.035907 
L 138.353206 188.078497 
L 138.43889 188.035324 
L 138.644532 187.976055 
L 138.661669 188.006334 
L 138.678805 188.042403 
L 138.730216 187.950052 
L 138.76449 187.97543 
L 139.021542 188.142246 
L 139.330005 188.078917 
L 139.467099 188.11111 
L 139.484236 188.060403 
L 139.552784 188.121215 
L 139.587057 188.179433 
L 139.672741 188.143102 
L 139.689878 188.110968 
L 139.741289 188.198571 
L 139.878383 188.341909 
L 139.981204 188.45716 
L 140.066888 188.490448 
L 140.084025 188.45026 
L 140.203983 188.422834 
L 140.683814 188.263857 
L 140.718088 188.252675 
L 140.752361 188.18421 
L 140.769498 188.113451 
L 140.838046 188.287947 
L 141.026551 188.291541 
L 141.043688 188.319349 
L 141.112235 188.224792 
L 141.129372 188.252588 
L 141.232193 188.219943 
L 141.472108 187.984414 
L 141.506382 188.020406 
L 141.574929 187.953605 
L 142.140444 187.827896 
L 142.311813 187.973105 
L 142.32895 187.951517 
L 142.620276 187.680308 
L 142.688823 187.566341 
L 142.75737 187.606606 
L 142.791644 187.64517 
L 142.860191 187.59757 
L 143.494254 186.776642 
L 143.528527 186.819868 
L 143.562801 186.804283 
L 143.597075 186.734082 
L 144.059769 186.35411 
L 144.196864 186.245365 
L 144.351095 186.230896 
L 144.522463 186.07318 
L 144.813789 185.999736 
L 145.087979 185.814422 
L 145.276484 185.77694 
L 145.464989 185.610927 
L 145.482126 185.643939 
L 145.550673 185.751511 
L 145.602083 185.70756 
L 145.739178 185.721141 
L 145.876273 185.609581 
L 145.961957 185.496299 
L 146.099051 185.403766 
L 146.167599 185.434371 
L 146.201872 185.367726 
L 146.338967 185.128761 
L 146.390377 185.176242 
L 146.493198 185.286709 
L 146.527472 185.215008 
L 146.767388 185.153121 
L 147.281492 184.967029 
L 147.435724 184.773143 
L 147.521408 184.704601 
L 147.572818 184.817227 
L 147.72705 184.876412 
L 147.812734 184.887667 
L 147.829871 184.869871 
L 148.138334 184.621238 
L 149.149406 184.942918 
L 149.252227 184.907203 
L 149.269364 184.921473 
L 149.320775 184.956166 
L 149.355048 184.869014 
L 149.372185 184.881182 
L 149.594964 184.894151 
L 149.783469 184.700524 
L 149.800606 184.715675 
L 150.040521 184.617099 
L 150.2633 184.382445 
L 150.331848 184.371633 
L 150.348984 184.322619 
L 150.520353 184.280851 
L 150.623174 184.274388 
L 150.794542 184.080471 
L 150.96591 184.201571 
L 151.462878 184.19606 
L 151.548562 184.28733 
L 151.582836 184.255158 
L 151.788478 184.031716 
L 151.959846 183.964191 
L 151.99412 183.929168 
L 152.079804 183.936598 
L 152.405404 183.942375 
L 152.491088 183.967899 
L 152.542498 184.00938 
L 152.593909 183.964621 
L 152.782414 183.769219 
L 152.833824 183.817434 
L 152.885235 183.724667 
L 153.056603 183.766822 
L 153.159424 183.883485 
L 153.193698 183.854081 
L 153.313655 183.849735 
L 153.365066 183.91258 
L 153.433613 183.858622 
L 153.690666 183.401827 
L 153.707802 183.445829 
L 153.77635 183.452714 
L 153.810623 183.428919 
L 154.20477 183.025036 
L 154.290454 182.978653 
L 154.324728 183.03967 
L 154.461823 183.000242 
L 154.598917 183.091066 
L 154.616054 183.077032 
L 154.85597 182.948245 
L 155.28439 182.848084 
L 155.455759 182.678958 
L 155.884179 182.76844 
L 156.466831 182.210699 
L 156.586789 182.261201 
L 156.603926 182.226597 
L 156.741021 182.109465 
L 157.06662 182.11979 
L 157.118031 182.184193 
L 157.169441 182.131531 
L 157.357946 181.988058 
L 157.375083 182.000557 
L 157.460767 181.944164 
L 157.597862 181.895112 
L 157.734957 181.891811 
L 157.854914 181.861004 
L 157.923462 181.924908 
L 157.974872 181.855546 
L 158.14624 181.755651 
L 158.386156 181.762053 
L 158.540387 181.657731 
L 158.711756 181.769296 
L 158.728893 181.731884 
L 158.79744 181.840168 
L 158.814577 181.808042 
L 158.84885 181.825809 
L 158.865987 181.745015 
L 158.934534 181.6702 
L 158.985945 181.718068 
L 159.140176 181.833226 
L 159.482913 181.717337 
L 159.534323 181.759247 
L 159.585734 181.73039 
L 159.808513 181.51206 
L 159.825649 181.540836 
L 159.842786 181.475615 
L 159.87706 181.494653 
L 160.014155 181.381319 
L 160.151249 181.383172 
L 160.528259 181.211106 
L 160.973817 181.263394 
L 161.145185 181.10469 
L 161.248006 181.14725 
L 161.265143 181.132935 
L 162.002026 181.216669 
L 162.190532 180.864383 
L 162.259079 180.805486 
L 162.310489 180.727051 
L 162.379037 180.777997 
L 162.430447 180.813753 
L 162.481858 180.740031 
L 162.516131 180.763877 
L 162.550405 180.683523 
L 162.824594 180.386252 
L 162.995962 180.483186 
L 163.184467 180.319714 
L 163.218741 180.368122 
L 163.287288 180.294035 
L 163.510067 180.165324 
L 163.578614 180.229279 
L 163.630025 180.189497 
L 163.989898 180.127113 
L 164.109856 180.102756 
L 164.246951 180.01575 
L 164.315498 179.885683 
L 164.366909 179.921339 
L 164.486866 179.889182 
L 164.89815 179.635439 
L 165.103792 179.705023 
L 165.446529 179.660878 
L 165.60076 179.726997 
L 166.577559 179.289437 
L 166.800338 179.123025 
L 166.851748 179.142871 
L 166.886022 179.081262 
L 167.125938 178.781391 
L 167.485811 179.037993 
L 167.554358 178.915613 
L 167.605769 179.013266 
L 167.622906 178.970647 
L 167.674316 179.041269 
L 167.691453 179.038213 
L 167.862821 179.250481 
L 167.879958 179.235017 
L 168.102737 179.374774 
L 168.119874 179.315858 
L 168.222694 179.307426 
L 168.239831 179.324289 
L 168.342652 179.317552 
L 168.531157 179.155213 
L 168.633978 179.180596 
L 168.771073 179.072137 
L 169.045262 178.947895 
L 169.148083 178.822381 
L 169.182357 178.865865 
L 169.21663 178.931732 
L 169.285178 178.928986 
L 169.353725 179.016146 
L 169.405136 178.954693 
L 169.54223 179.046246 
L 169.662188 179.086483 
L 169.936377 179.222963 
L 170.176293 179.113186 
L 170.210566 179.167632 
L 170.261977 179.075825 
L 170.279114 179.091884 
L 170.450482 179.087602 
L 170.587577 179.044772 
L 170.741808 179.034361 
L 170.861766 179.061364 
L 171.067408 179.142029 
L 171.307323 179.21168 
L 171.547239 179.124819 
L 172.147028 179.552549 
L 172.318396 179.591281 
L 172.643996 179.540407 
L 172.798227 179.693674 
L 172.815364 179.668098 
L 172.986732 179.414194 
L 173.089553 179.424546 
L 173.10669 179.462359 
L 173.123827 179.491095 
L 173.175237 179.395655 
L 173.192374 179.394073 
L 173.243785 179.386546 
L 173.260922 179.320295 
L 173.278058 179.300025 
L 173.329469 179.396054 
L 173.346606 179.372835 
L 173.586521 179.480941 
L 173.706479 179.528128 
L 173.877847 179.58482 
L 174.100626 179.513329 
L 174.117763 179.550716 
L 174.254857 179.632632 
L 174.271994 179.619864 
L 174.443363 179.564611 
L 174.546183 179.428908 
L 174.597594 179.452711 
L 174.940331 179.177941 
L 175.008878 179.180993 
L 175.026015 179.135759 
L 175.163109 179.078852 
L 175.231657 179.053372 
L 175.248793 179.003261 
L 175.368751 178.7916 
L 175.403025 178.841535 
L 175.488709 178.92702 
L 175.522983 178.897263 
L 175.762898 178.850928 
L 175.96854 178.695347 
L 176.122772 178.722367 
L 176.379824 178.362714 
L 176.516919 178.212671 
L 176.551192 178.358557 
L 176.61974 178.300309 
L 176.636876 178.234397 
L 176.705424 178.331524 
L 176.72256 178.31581 
L 176.791108 178.353779 
L 176.808245 178.300588 
L 176.962476 178.153136 
L 176.99675 178.215065 
L 177.04816 178.110418 
L 177.356623 177.762386 
L 177.37376 177.801519 
L 177.510854 177.925876 
L 178.573338 177.272843 
L 178.744706 177.119493 
L 178.847527 177.123665 
L 178.864664 177.080244 
L 178.950348 177.013474 
L 179.001758 177.037533 
L 179.275948 176.887172 
L 179.413042 176.794392 
L 179.430179 176.835804 
L 179.498726 176.759665 
L 179.601547 176.661467 
L 179.635821 176.739015 
L 179.790052 176.673086 
L 179.944284 176.727568 
L 180.115652 176.550358 
L 180.201336 176.653313 
L 180.23561 176.582889 
L 180.492662 176.656365 
L 180.544073 176.702884 
L 180.578346 176.575577 
L 180.715441 176.535732 
L 180.869673 176.662941 
L 180.98963 176.564962 
L 181.006767 176.598447 
L 181.041041 176.68967 
L 181.109588 176.622883 
L 181.246683 176.484747 
L 181.280956 176.503233 
L 181.452325 176.64306 
L 181.469461 176.609609 
L 181.520872 176.70751 
L 181.64083 176.735439 
L 182.223482 176.540288 
L 182.326303 176.533969 
L 182.480534 176.622612 
L 182.72045 176.286026 
L 182.806134 176.265109 
L 182.823271 176.29583 
L 183.063186 176.388393 
L 183.217418 176.157746 
L 183.234555 176.192557 
L 183.457333 176.299889 
L 183.628702 176.202016 
L 183.662975 176.244276 
L 183.782933 176.356616 
L 183.834344 176.319016 
L 183.988575 176.387724 
L 184.211354 176.342587 
L 184.451269 176.338378 
L 184.519817 176.404387 
L 184.571227 176.349306 
L 184.622638 176.266705 
L 184.691185 176.321064 
L 184.845416 176.225057 
L 184.862553 176.246751 
L 185.068195 176.309464 
L 185.136742 176.157934 
L 185.20529 176.185217 
L 185.548026 176.059868 
L 185.736531 176.136806 
L 185.770805 176.210099 
L 185.856489 176.148646 
L 185.873626 176.161295 
L 185.925036 176.074476 
L 186.524825 175.775715 
L 186.679057 175.665243 
L 186.884699 175.568303 
L 187.021793 175.53703 
L 187.295982 175.475956 
L 187.330256 174.244707 
L 187.450214 172.663897 
L 187.467351 172.674259 
L 187.672993 172.712749 
L 187.79295 172.622499 
L 187.895771 172.678862 
L 187.930045 172.663023 
L 188.187097 172.413671 
L 188.204234 172.425935 
L 188.512697 172.567398 
L 188.529834 172.527892 
L 188.666929 172.320873 
L 188.684065 172.347144 
L 188.82116 172.423943 
L 188.838297 172.410066 
L 188.941118 172.373683 
L 188.958255 172.387254 
L 189.078212 172.367444 
L 189.283854 172.114569 
L 189.300991 172.12569 
L 189.438086 172.325327 
L 189.52377 172.171603 
L 189.678001 171.9954 
L 189.90078 172.239153 
L 190.037875 172.155009 
L 190.055012 172.168946 
L 190.123559 172.183305 
L 190.140696 172.121962 
L 190.243517 172.023368 
L 190.260653 172.081868 
L 190.27779 172.117936 
L 190.363474 172.044041 
L 190.397748 172.067935 
L 190.414885 171.980093 
L 190.449159 171.989106 
L 190.466295 171.936181 
L 190.500569 172.028502 
L 190.534843 172.025643 
L 190.671937 172.065501 
L 191.117495 171.801916 
L 191.220316 171.706526 
L 191.237453 171.715746 
L 191.340274 171.733513 
L 191.35741 171.713691 
L 191.614463 171.713168 
L 191.700147 171.782317 
L 191.717284 171.690123 
L 191.905789 171.467211 
L 191.922926 171.492531 
L 191.974336 171.381485 
L 192.179978 171.434874 
L 192.197115 171.489363 
L 192.248525 171.400791 
L 192.299936 171.450679 
L 192.454167 171.439148 
L 192.488441 172.632388 
L 192.574125 174.195555 
L 192.625536 174.160322 
L 192.779767 174.142544 
L 192.848314 174.212399 
L 192.882588 174.130661 
L 192.985409 174.045945 
L 193.019683 174.080135 
L 193.071093 174.009628 
L 193.191051 174.158932 
L 193.276735 174.073381 
L 193.311009 174.100163 
L 193.328145 174.123979 
L 193.362419 174.05775 
L 193.516651 173.850909 
L 193.756566 173.638053 
L 193.825113 173.780743 
L 193.876524 173.710176 
L 193.979345 173.564414 
L 194.013619 173.59984 
L 194.236397 173.237116 
L 194.270671 173.185044 
L 194.322081 173.220794 
L 194.579134 172.824829 
L 194.716228 172.75187 
L 194.87046 172.77932 
L 195.041828 172.641503 
L 195.607343 172.432298 
L 195.62448 172.446182 
L 195.641617 172.417642 
L 195.761575 172.327152 
L 196.00149 172.038484 
L 196.018627 172.050114 
L 196.207132 172.03207 
L 196.241406 172.062525 
L 196.27568 171.947102 
L 196.412774 171.943088 
L 196.567006 171.787804 
L 196.721237 171.824102 
L 196.961153 171.695695 
L 196.97829 171.73829 
L 197.063974 171.727706 
L 197.098247 171.637582 
L 197.183931 171.69526 
L 197.458121 171.505439 
L 197.663763 171.335324 
L 197.835131 171.3078 
L 198.006499 171.196291 
L 198.05791 171.32647 
L 198.126457 171.274851 
L 198.520604 171.300344 
L 198.726246 171.487115 
L 199.120393 171.269101 
L 199.13753 171.298384 
L 199.206077 171.208185 
L 199.223214 171.230039 
L 199.240351 171.207213 
L 199.291761 171.294169 
L 199.857276 171.76139 
L 200.028645 171.600297 
L 200.045781 171.671684 
L 200.285697 171.756394 
L 200.439928 171.844514 
L 200.59416 171.715927 
L 200.611297 171.73689 
L 201.451001 172.269793 
L 201.553822 172.166201 
L 201.570959 172.212907 
L 202.119337 172.175258 
L 202.136474 172.106402 
L 202.222158 172.151671 
L 202.307843 172.175627 
L 202.324979 172.136468 
L 202.941905 172.271408 
L 203.216094 171.946393 
L 203.267505 172.00206 
L 203.318915 171.953431 
L 203.473147 171.786907 
L 203.593105 171.867628 
L 203.610241 171.858975 
L 203.78161 171.663425 
L 203.815883 171.657044 
L 203.83302 171.608386 
L 203.884431 171.547696 
L 203.935841 171.650268 
L 204.398535 171.580726 
L 204.587041 171.318174 
L 205.015461 171.032044 
L 205.101145 171.128679 
L 205.152556 171.086215 
L 205.255377 170.943449 
L 205.375335 170.897507 
L 205.392471 170.93605 
L 205.426745 170.87224 
L 205.478155 170.89264 
L 205.632387 170.704045 
L 205.649524 170.739746 
L 205.803755 170.880106 
L 205.820892 170.870716 
L 205.838029 170.882827 
L 205.872302 170.78798 
L 206.026534 170.692693 
L 206.215039 170.620858 
L 206.352134 170.557805 
L 206.454955 170.468148 
L 206.489228 170.529444 
L 206.64346 170.426684 
L 206.729144 170.395798 
L 206.746281 170.419047 
L 206.900512 170.515022 
L 207.174701 170.462742 
L 207.260385 170.411357 
L 207.277522 170.360999 
L 207.294659 170.435673 
L 207.328933 170.420595 
L 207.431754 170.512401 
L 207.448891 170.504303 
L 207.551712 170.508965 
L 207.568848 170.549129 
L 207.603122 170.593585 
L 207.654532 170.487415 
L 207.791627 170.289372 
L 207.825901 170.375413 
L 207.894448 170.265372 
L 208.014406 170.14017 
L 208.048679 170.185766 
L 208.391416 170.310623 
L 208.408553 170.263641 
L 208.42569 170.229564 
L 208.494237 170.335355 
L 208.545647 170.257023 
L 208.614195 170.191863 
L 208.665605 170.251393 
L 208.836973 170.295702 
L 208.85411 170.260396 
L 209.008342 170.213115 
L 209.025479 170.247994 
L 209.419626 170.161789 
L 209.55672 170.046499 
L 209.573857 170.076521 
L 209.745225 170.151364 
L 209.813773 170.048625 
L 209.865183 170.084776 
L 210.139372 170.049703 
L 210.396425 169.876244 
L 210.430698 169.930235 
L 210.482109 169.811703 
L 210.602067 169.727663 
L 210.807709 169.725243 
L 210.979077 169.570688 
L 211.030487 169.609934 
L 211.150445 169.488143 
L 211.167582 169.503312 
L 211.201856 169.418514 
L 211.218992 169.401636 
L 211.356087 169.410687 
L 211.424634 169.494368 
L 211.476045 169.439086 
L 211.596003 169.346837 
L 211.613139 169.360748 
L 211.630276 169.296036 
L 211.66455 169.2119 
L 211.750234 169.244009 
L 211.853055 169.279385 
L 211.870192 169.225944 
L 212.04156 169.065287 
L 212.058697 169.092318 
L 212.212928 169.095942 
L 212.36716 168.963949 
L 212.435707 169.019778 
L 212.469981 168.93515 
L 212.984086 168.643458 
L 213.001222 168.681096 
L 213.086906 168.739344 
L 213.172591 168.737715 
L 213.206864 168.661697 
L 213.292548 168.700595 
L 213.326822 168.623657 
L 213.481054 168.332395 
L 213.669559 168.399214 
L 213.909474 168.170008 
L 214.046569 168.127963 
L 214.166527 168.021594 
L 214.320758 167.849935 
L 214.543537 167.906914 
L 214.594947 167.825027 
L 214.663495 167.896169 
L 215.126189 167.817211 
L 215.143326 167.857428 
L 215.194736 167.755249 
L 215.297557 167.609094 
L 215.348968 167.691725 
L 215.571746 167.830999 
L 215.640294 167.851053 
L 215.65743 167.930294 
L 215.743115 167.832206 
L 216.017304 167.540138 
L 216.051577 167.565091 
L 216.342904 167.614991 
L 216.445725 167.563011 
L 217.114061 167.168017 
L 217.182608 167.335326 
L 217.251155 167.255638 
L 217.38825 167.232674 
L 217.559618 167.201947 
L 217.628166 167.120846 
L 217.679576 167.197476 
L 217.76526 167.2207 
L 217.782397 167.182458 
L 217.936628 167.125576 
L 217.953765 167.158117 
L 218.14227 167.234609 
L 218.159407 167.192221 
L 218.296502 167.075327 
L 218.330775 167.13478 
L 218.536417 167.309914 
L 218.84488 167.157103 
L 218.879154 167.235794 
L 218.964838 167.138144 
L 219.187617 167.211331 
L 219.290438 167.138868 
L 219.324711 167.180168 
L 219.427532 167.125042 
L 219.478943 167.190854 
L 219.564627 167.072456 
L 219.855953 166.753129 
L 219.890227 166.806799 
L 219.941637 166.736345 
L 220.044458 166.634183 
L 220.078732 166.655009 
L 220.232963 166.601065 
L 220.352921 166.548198 
L 220.490016 166.636836 
L 220.62711 166.598349 
L 220.764205 166.622112 
L 220.884163 166.426172 
L 220.901299 166.459975 
L 221.261173 166.490928 
L 221.466815 166.38329 
L 221.603909 166.235657 
L 221.843825 166.413184 
L 222.237972 166.236122 
L 222.477887 166.087276 
L 222.597845 166.118957 
L 222.614982 166.07255 
L 222.752077 166.04075 
L 222.769214 166.102475 
L 222.820624 165.980427 
L 222.837761 165.996621 
L 222.957719 165.95411 
L 222.974855 165.989652 
L 223.009129 165.955967 
L 223.026266 165.894043 
L 223.43755 165.753516 
L 223.523234 165.774423 
L 223.540371 165.740524 
L 223.951655 165.462084 
L 223.968791 165.487003 
L 224.105886 165.575158 
L 224.534307 165.194323 
L 224.671401 165.338622 
L 224.688538 165.273933 
L 224.774222 165.297576 
L 224.928454 165.469798 
L 225.065548 165.411325 
L 225.082685 165.434177 
L 225.116959 165.519368 
L 225.202643 165.454612 
L 225.391148 165.400478 
L 225.511106 165.416391 
L 225.6482 165.273464 
L 225.665337 165.297138 
L 225.733885 165.240996 
L 225.888116 165.108079 
L 226.230852 165.100242 
L 226.539315 165.181523 
L 226.744957 164.975823 
L 226.882052 165.049983 
L 226.899189 165.02361 
L 227.05342 164.903941 
L 227.087694 164.969686 
L 227.156241 164.898143 
L 227.70462 164.917584 
L 227.875988 164.737327 
L 228.252998 164.965199 
L 228.270135 164.911495 
L 228.492914 164.876564 
L 228.749966 164.685016 
L 228.955608 164.64355 
L 228.972745 164.683384 
L 229.109839 164.802684 
L 229.418302 164.733026 
L 229.469713 164.752173 
L 229.521123 164.717125 
L 229.555397 164.745182 
L 229.606807 164.714111 
L 229.692491 164.890179 
L 229.743902 164.799939 
L 229.966681 164.933743 
L 229.983818 164.944401 
L 230.035228 164.850047 
L 230.754975 164.707366 
L 231.097711 164.835721 
L 231.114848 164.752531 
L 231.234806 164.574974 
L 231.286216 164.633832 
L 231.3719 164.606397 
L 231.560406 164.312972 
L 231.577542 164.260686 
L 231.628953 164.360371 
L 231.64609 164.352078 
L 231.903142 164.318806 
L 232.674299 164.112189 
L 232.691436 164.156745 
L 232.759983 164.094515 
L 232.845668 164.001178 
L 232.879941 164.064238 
L 232.931352 164.073484 
L 232.948489 164.128189 
L 232.965625 164.134939 
L 233.10272 164.184602 
L 233.15413 164.120621 
L 233.308362 163.997771 
L 233.325499 164.025558 
L 233.582551 163.738279 
L 233.599688 163.756862 
L 233.753919 163.836886 
L 233.925288 163.950096 
L 234.148066 164.002871 
L 234.285161 163.860573 
L 234.319435 163.914295 
L 234.525077 163.921055 
L 234.627898 163.91782 
L 234.645034 163.930498 
L 234.730718 164.022163 
L 234.764992 163.980127 
L 234.867813 163.81877 
L 234.902087 163.84154 
L 235.142002 163.608283 
L 235.159139 163.622612 
L 235.279097 163.631309 
L 235.313371 163.529662 
L 235.381918 163.611236 
L 235.467602 163.733878 
L 235.519012 163.717163 
L 235.570423 163.616126 
L 235.621833 163.757206 
L 235.690381 163.709259 
L 235.827475 163.647943 
L 236.01598 163.720925 
L 236.170212 163.539433 
L 236.375854 163.737396 
L 236.478675 163.733435 
L 236.530085 163.688623 
L 236.564359 163.781404 
L 236.66718 163.838119 
L 236.684317 163.823736 
L 237.181285 163.737852 
L 237.198422 163.75047 
L 237.232695 163.643982 
L 237.352653 163.673728 
L 237.524021 163.701865 
L 237.661116 163.6875 
L 237.695389 163.783738 
L 237.763937 163.658487 
L 237.781074 163.681216 
L 237.832484 163.626413 
L 237.952442 163.498299 
L 237.969579 163.571842 
L 238.055263 163.533169 
L 238.312315 163.3039 
L 238.329452 163.345076 
L 238.466547 163.508658 
L 238.483683 163.502648 
L 238.569368 163.472363 
L 238.603641 163.509698 
L 238.860694 163.586758 
L 239.083472 163.349136 
L 239.15202 163.267623 
L 239.391935 163.096856 
L 239.426209 163.158293 
L 239.494756 163.099773 
L 239.820356 162.91018 
L 239.85463 162.940609 
L 239.90604 162.843706 
L 240.128819 162.777395 
L 240.351598 162.533043 
L 240.385871 162.574593 
L 240.505829 162.49849 
L 240.677197 162.401805 
L 240.694334 162.458236 
L 240.745745 162.354164 
L 240.762881 162.365816 
L 240.882839 162.174599 
L 240.917113 162.236779 
L 241.157028 162.145733 
L 241.294123 162.035665 
L 241.448354 161.946021 
L 241.602586 161.753312 
L 241.739681 161.74755 
L 241.756817 161.790329 
L 242.493701 161.717133 
L 242.630796 161.495793 
L 242.785027 161.612033 
L 243.007806 161.651136 
L 243.110627 161.779972 
L 243.162037 161.721491 
L 243.230584 161.774181 
L 243.299132 161.655113 
L 243.487637 161.705877 
L 243.641868 161.491477 
L 243.761826 161.522062 
L 243.898921 161.472109 
L 244.036015 161.496833 
L 244.190247 161.547315 
L 244.207384 161.514276 
L 244.258794 161.363956 
L 244.310205 161.452802 
L 244.413025 161.478804 
L 244.532983 161.417518 
L 245.115635 161.262652 
L 245.269867 161.149173 
L 245.424098 161.254395 
L 245.664014 161.125007 
L 245.818245 161.049223 
L 245.972477 161.035303 
L 246.00675 161.092822 
L 246.075298 161.000767 
L 246.109571 160.92351 
L 246.178119 160.973166 
L 246.315213 161.075778 
L 246.452308 160.985925 
L 246.537992 160.930876 
L 246.606539 160.891921 
L 246.623676 160.956111 
L 246.65795 160.977584 
L 246.70936 160.931443 
L 246.743634 160.884057 
L 246.795044 160.93818 
L 246.829318 161.005954 
L 246.897865 160.909849 
L 247.206328 160.771153 
L 247.240602 160.786585 
L 247.274876 160.687911 
L 247.36056 160.629805 
L 247.480517 160.669922 
L 247.600475 160.646384 
L 247.634749 160.621681 
L 247.686159 160.694436 
L 247.806117 160.658394 
L 248.388769 160.261798 
L 248.405906 160.287503 
L 248.474453 160.358103 
L 248.525864 160.308241 
L 249.057106 160.244938 
L 249.228474 160.364231 
L 249.262747 160.343997 
L 249.331295 160.411718 
L 249.399842 160.499993 
L 249.468389 160.46837 
L 249.502663 160.51197 
L 249.5198 160.489267 
L 249.554073 160.613737 
L 249.742579 160.645441 
L 249.8454 160.710055 
L 249.862536 160.674777 
L 250.136726 160.894458 
L 250.153862 160.814852 
L 250.27382 160.85271 
L 250.428052 160.972743 
L 250.565146 160.937193 
L 250.633694 160.921596 
L 250.65083 160.961439 
L 250.856472 161.214268 
L 251.027841 161.256895 
L 251.062114 161.303095 
L 251.096388 161.200621 
L 251.164935 161.08625 
L 251.233482 161.144342 
L 251.284893 161.262689 
L 251.35344 161.137114 
L 251.559082 161.188887 
L 251.73045 161.091371 
L 251.884682 161.295004 
L 252.021777 161.295245 
L 252.227418 161.120324 
L 252.415924 161.12415 
L 252.604429 161.214516 
L 252.672976 161.148457 
L 252.724386 161.205207 
L 252.75866 161.264987 
L 252.844344 161.203766 
L 253.015712 161.125811 
L 253.118533 161.232012 
L 253.152807 161.172413 
L 253.289902 161.119476 
L 253.478407 161.103326 
L 253.495544 161.19164 
L 253.581228 161.055255 
L 253.78687 160.974517 
L 253.906827 160.991644 
L 254.48948 160.409715 
L 254.712258 160.148026 
L 254.849353 160.089994 
L 254.986448 159.866086 
L 255.037858 159.937392 
L 255.072132 159.836187 
L 255.226363 159.579262 
L 255.2435 159.632633 
L 255.5691 159.501406 
L 255.654784 159.577544 
L 255.689057 159.524747 
L 255.791878 159.474723 
L 255.843289 159.392017 
L 255.928973 159.436499 
L 256.237436 159.229704 
L 256.37453 159.348034 
L 256.408804 159.30745 
L 256.460215 159.229793 
L 256.545899 159.294866 
L 256.837225 159.228168 
L 256.854362 159.287555 
L 256.905772 159.149399 
L 256.940046 159.190393 
L 257.35133 158.855137 
L 257.368466 158.880355 
L 257.385603 158.928311 
L 257.471287 158.866897 
L 257.625519 158.745472 
L 257.77975 158.825223 
L 257.899708 158.737847 
L 258.053939 158.630459 
L 258.10535 158.671716 
L 258.15676 158.596573 
L 258.362402 158.486288 
L 258.465223 158.414733 
L 258.705139 158.086815 
L 258.910781 158.254298 
L 259.013602 158.203769 
L 259.18497 158.148047 
L 259.322065 158.203573 
L 259.339201 158.216269 
L 259.373475 158.14994 
L 259.407749 158.030292 
L 259.493433 158.116709 
L 259.647664 157.958216 
L 259.784759 157.979614 
L 259.973264 157.873295 
L 260.298864 158.064502 
L 260.316001 158.045921 
L 260.418822 157.912278 
L 260.453095 158.004536 
L 260.521642 158.045831 
L 260.573053 158.007185 
L 260.727284 157.969259 
L 260.881516 157.783712 
L 261.001474 157.77345 
L 261.138568 157.647226 
L 261.155705 157.65292 
L 261.172842 157.622158 
L 261.241389 157.717848 
L 262.029683 157.398019 
L 262.149641 157.338048 
L 262.166778 157.354537 
L 262.286736 157.484797 
L 262.303872 157.459129 
L 262.458104 157.348773 
L 262.475241 157.300205 
L 262.509514 157.383242 
L 262.560925 157.34331 
L 262.766567 157.39411 
L 263.332082 156.980582 
L 263.417766 156.983385 
L 263.434903 156.952267 
L 263.640545 156.864225 
L 263.657682 156.922763 
L 263.726229 157.002078 
L 263.77764 156.954253 
L 264.017555 156.714515 
L 264.034692 156.667401 
L 264.120376 156.712173 
L 264.171787 156.738424 
L 264.223197 156.696108 
L 264.326018 156.555677 
L 264.360292 156.568234 
L 264.411702 156.647271 
L 264.463113 156.52658 
L 264.685891 156.557078 
L 265.148586 156.381168 
L 265.217133 156.295584 
L 265.28568 156.153132 
L 265.508459 155.879613 
L 265.55987 155.930701 
L 265.594143 155.806074 
L 265.731238 155.780278 
L 265.919743 155.652839 
L 266.073974 155.48123 
L 266.091111 155.494152 
L 266.262479 155.50388 
L 266.416711 155.583908 
L 266.433848 155.55075 
L 266.793721 155.393469 
L 266.913679 155.452986 
L 266.930816 155.408528 
L 266.947952 155.379526 
L 267.0165 155.460962 
L 267.119321 155.426693 
L 267.136458 155.356948 
L 267.222142 155.454849 
L 267.650562 155.157782 
L 267.890478 155.075246 
L 268.010436 155.029913 
L 268.164667 155.021109 
L 268.250351 154.890188 
L 268.284625 154.956405 
L 268.593088 155.131756 
L 268.627361 155.053829 
L 268.764456 154.906706 
L 268.884414 154.802159 
L 268.901551 154.829191 
L 269.261424 154.819108 
L 269.432792 154.68451 
L 269.92976 154.556365 
L 270.015444 154.480638 
L 270.152539 154.375575 
L 270.169676 154.390387 
L 270.341044 154.435072 
L 270.529549 154.601234 
L 270.666644 154.54599 
L 270.683781 154.565186 
L 270.838012 154.65396 
L 270.855149 154.622091 
L 271.077928 154.547165 
L 271.317843 154.50713 
L 271.574896 154.211115 
L 271.729127 154.131625 
L 271.951906 154.237172 
L 272.140411 153.993713 
L 272.397463 153.791773 
L 272.4146 153.808875 
L 272.483147 153.790423 
L 272.500284 153.764128 
L 272.534558 153.791618 
L 272.705926 153.614677 
L 272.774473 153.638724 
L 272.808747 153.572008 
L 273.031526 153.271357 
L 273.048663 153.296038 
L 273.185757 153.416892 
L 273.237168 153.361738 
L 273.768409 153.185415 
L 273.854094 153.300882 
L 273.905504 153.261698 
L 274.111146 153.122035 
L 274.128283 153.161954 
L 274.471019 153.339752 
L 274.625251 153.195966 
L 274.642388 153.222097 
L 274.830893 153.170023 
L 274.967987 153.132527 
L 275.841965 152.956925 
L 276.064744 152.764915 
L 276.081881 152.781256 
L 276.30466 152.866871 
L 276.561712 152.944109 
L 276.647396 152.819983 
L 276.68167 152.91183 
L 276.818765 152.943421 
L 276.972996 152.842564 
L 277.092954 152.815151 
L 277.212912 152.819735 
L 277.332869 152.817531 
L 277.350006 152.790218 
L 277.504238 152.687175 
L 277.521374 152.702958 
L 277.778427 152.855195 
L 277.881248 152.76744 
L 277.898385 152.799321 
L 278.069753 152.845707 
L 278.206848 152.935653 
L 278.720952 152.422949 
L 278.738089 152.465925 
L 278.909457 152.504233 
L 279.132236 152.5201 
L 279.21792 152.448732 
L 279.423562 152.302143 
L 279.440699 152.341133 
L 279.49211 152.252472 
L 279.509246 152.247439 
L 279.577794 152.231802 
L 279.59493 152.18634 
L 279.749162 152.148074 
L 279.834846 152.301074 
L 279.86912 152.229063 
L 279.954804 152.16874 
L 279.989077 152.219117 
L 280.160446 152.278122 
L 280.314677 152.247751 
L 280.331814 152.282598 
L 280.57173 152.372195 
L 280.845919 152.111408 
L 280.983013 152.180509 
L 281.32575 152.417641 
L 281.360024 152.468478 
L 281.37716 152.381631 
L 281.411434 152.377818 
L 281.548529 152.267956 
L 281.599939 152.327277 
L 281.634213 152.253584 
L 281.754171 152.213486 
L 281.874128 152.253465 
L 281.891265 152.210978 
L 281.976949 152.166657 
L 281.994086 152.246753 
L 282.045497 152.266804 
L 282.07977 152.228613 
L 282.199728 152.126334 
L 282.456781 152.244888 
L 282.611012 152.211827 
L 282.78238 152.247222 
L 282.936612 152.131515 
L 282.970885 152.182345 
L 283.193664 152.43104 
L 283.296485 152.374001 
L 283.313622 152.402626 
L 283.416443 152.642708 
L 283.48499 152.555249 
L 283.502127 152.522728 
L 283.570674 152.624188 
L 283.690632 152.600489 
L 283.707769 152.626337 
L 284.084779 152.800497 
L 284.101916 152.767246 
L 284.23901 152.706148 
L 284.393242 152.730815 
L 284.496063 152.768589 
L 284.5132 152.796846 
L 284.547473 152.718002 
L 284.581747 152.713317 
L 284.701705 152.628994 
L 284.804526 152.656721 
L 284.821663 152.623387 
L 284.94162 152.502519 
L 284.855936 152.646305 
L 284.975894 152.548724 
L 285.112989 152.682824 
L 285.147262 152.604757 
L 285.21581 152.66374 
L 285.284357 152.674353 
L 285.301494 152.613443 
L 285.352904 152.519015 
L 285.404315 152.579146 
L 285.455725 152.590326 
L 285.489999 152.522411 
L 285.59282 152.502819 
L 285.524272 152.560412 
L 285.609957 152.548955 
L 285.747051 152.527238 
L 285.832735 152.351006 
L 285.867009 152.435036 
L 286.02124 152.415779 
L 286.124061 152.327623 
L 286.158335 152.355929 
L 286.621029 152.239728 
L 287.015176 152.29324 
L 287.152271 152.1889 
L 287.169408 152.198225 
L 287.357913 152.322562 
L 287.632102 152.0803 
L 287.666376 152.121292 
L 287.769197 152.247702 
L 287.80347 152.214678 
L 288.180481 152.102788 
L 288.420396 151.920286 
L 288.50608 151.951108 
L 288.540354 151.864007 
L 288.608901 151.926305 
L 288.626038 151.963506 
L 288.694585 151.889751 
L 288.728859 151.811622 
L 288.814543 151.84982 
L 288.985911 151.711825 
L 289.020185 151.619585 
L 289.105869 151.678795 
L 289.123006 151.696064 
L 289.140143 151.639992 
L 289.191553 151.620153 
L 289.260101 151.571486 
L 289.277238 151.61963 
L 289.397195 151.741981 
L 289.414332 151.731367 
L 289.551427 151.713348 
L 289.568564 151.730589 
L 289.602837 151.652073 
L 289.637111 151.554109 
L 289.722795 151.623407 
L 289.791342 151.712717 
L 289.825616 151.659776 
L 289.894163 151.614416 
L 289.928437 151.665959 
L 290.048395 151.749939 
L 290.116942 151.659186 
L 290.168352 151.513964 
L 290.2369 151.602414 
L 290.425405 151.507868 
L 290.579636 151.373504 
L 290.716731 151.555847 
L 290.768141 151.497244 
L 290.870962 151.231675 
L 290.922373 151.31288 
L 290.93951 151.351789 
L 291.025194 151.285844 
L 291.042331 151.242727 
L 291.110878 151.330228 
L 291.128015 151.320261 
L 291.385067 151.335917 
L 291.419341 151.318636 
L 291.487888 151.373641 
L 291.659256 151.263366 
L 291.69353 151.308963 
L 291.779214 151.25023 
L 292.156224 150.880395 
L 292.259045 150.92783 
L 292.276182 150.871171 
L 292.310456 150.89237 
L 292.361866 150.839648 
L 292.481824 150.975255 
L 292.533235 150.900826 
L 292.584645 150.986718 
L 292.601782 151.036314 
L 292.653192 150.9365 
L 292.670329 150.946525 
L 293.201571 150.740691 
L 293.578581 150.729835 
L 293.835633 150.542958 
L 293.85277 150.582202 
L 293.972728 150.686377 
L 293.989865 150.65897 
L 294.041275 150.621415 
L 294.109823 150.666215 
L 294.264054 150.749611 
L 294.298328 150.667978 
L 294.658201 150.391192 
L 294.795296 150.569288 
L 294.812432 150.535129 
L 294.949527 150.333246 
L 294.966664 150.351223 
L 295.120895 150.429891 
L 295.25799 150.338203 
L 295.395085 150.382408 
L 295.566453 150.218893 
L 295.652137 150.193043 
L 295.669274 150.219478 
L 295.737821 150.264121 
L 295.772095 150.208289 
L 295.874916 150.108947 
L 295.909189 150.174989 
L 295.926326 150.164716 
L 295.9606 150.264083 
L 296.423294 150.364892 
L 296.526115 150.432154 
L 296.543252 150.368328 
L 296.800304 150.324873 
L 296.885989 150.219132 
L 296.937399 150.241529 
L 296.988809 150.225471 
L 297.108767 150.440124 
L 297.194451 150.540262 
L 297.262999 150.499245 
L 297.348683 150.500786 
L 297.400093 150.431259 
L 297.434367 150.539363 
L 297.520051 150.491499 
L 297.759967 150.261474 
L 297.811377 150.323146 
L 297.862788 150.213148 
L 298.668218 150.156771 
L 298.805313 150.11557 
L 298.82245 150.148063 
L 298.87386 150.188353 
L 298.908134 150.120948 
L 299.14805 149.844042 
L 299.250871 149.83764 
L 299.268007 149.821785 
L 299.353692 149.791528 
L 299.387965 149.817956 
L 299.57647 149.855875 
L 299.730702 149.77652 
L 299.85066 149.884902 
L 299.867796 149.811129 
L 300.073438 149.889297 
L 300.107712 149.927443 
L 300.159122 149.858918 
L 300.193396 149.820733 
L 300.261943 149.899534 
L 300.536133 149.954516 
L 300.621817 149.859375 
L 300.65609 149.919755 
L 300.810322 149.924164 
L 301.050237 149.744187 
L 301.255879 149.71898 
L 301.410111 149.494937 
L 301.478658 149.520598 
L 301.512932 149.501713 
L 302.078447 149.123216 
L 302.181268 149.07654 
L 302.352636 148.937501 
L 302.369773 148.961302 
L 302.38691 148.978361 
L 302.421183 148.92422 
L 302.626825 148.645238 
L 302.781057 148.621026 
L 302.901015 148.533877 
L 302.952425 148.420826 
L 303.020972 148.536808 
L 303.072383 148.603061 
L 303.106657 148.525621 
L 303.192341 148.439198 
L 303.226614 148.503429 
L 303.312298 148.62758 
L 303.329435 148.622831 
L 303.46653 148.496528 
L 303.637898 148.282321 
L 303.51794 148.536582 
L 303.689309 148.384217 
L 303.79213 148.256837 
L 303.929224 148.105595 
L 304.152003 148.047782 
L 304.340508 147.833067 
L 304.443329 147.926683 
L 304.460466 147.907552 
L 304.563287 147.605655 
L 304.631834 147.626598 
L 304.648971 147.643845 
L 304.700381 147.546385 
L 304.717518 147.571133 
L 304.837476 147.466958 
L 304.854613 147.489444 
L 304.957434 147.444146 
L 305.077392 147.385645 
L 305.094528 147.407546 
L 305.145939 147.457242 
L 305.197349 147.36779 
L 305.368718 147.311328 
L 305.505812 147.286122 
L 305.797138 147.319795 
L 306.037054 147.329195 
L 306.225559 147.424251 
L 306.294106 147.519928 
L 306.37979 147.302507 
L 306.825348 147.392517 
L 306.859622 147.321246 
L 306.928169 147.354675 
L 306.962443 147.436961 
L 307.013853 147.327954 
L 307.03099 147.334985 
L 307.048127 147.359354 
L 307.099537 147.269801 
L 307.116674 147.285839 
L 307.545095 146.985885 
L 307.716463 147.049206 
L 307.750737 146.91482 
L 307.836421 146.959541 
L 308.059199 147.060372 
L 308.264841 146.814682 
L 308.11061 147.133304 
L 308.281978 146.834182 
L 308.658988 146.689305 
L 308.710399 146.648626 
L 308.744673 146.684521 
L 308.881767 146.809131 
L 308.950314 146.760817 
L 308.967451 146.842604 
L 309.087409 146.939583 
L 309.207367 146.77119 
L 309.24164 146.797093 
L 309.704335 147.413955 
L 309.807156 147.234519 
L 310.201303 147.004811 
L 310.21844 147.037512 
L 310.26985 146.902014 
L 310.372671 146.835076 
L 310.475492 146.712584 
L 310.492629 146.720187 
L 310.509766 146.751714 
L 310.59545 146.676963 
L 310.783955 146.500972 
L 311.143828 146.424559 
L 311.263786 146.455112 
L 311.280923 146.437026 
L 311.537975 146.323557 
L 311.640796 146.090222 
L 311.692207 146.14895 
L 311.932122 146.101644 
L 311.966396 146.03576 
L 312.05208 146.076846 
L 312.206311 145.931812 
L 312.411953 145.797278 
L 312.514774 145.90385 
L 312.531911 145.855871 
L 312.549048 145.830959 
L 312.583322 145.929745 
L 312.617595 145.926924 
L 312.823237 145.761068 
L 312.840374 145.803801 
L 313.011742 145.981944 
L 313.08029 145.985929 
L 313.114563 146.021679 
L 313.234521 145.995506 
L 313.303068 145.928275 
L 313.337342 146.028085 
L 313.491573 146.186187 
L 313.697215 145.914479 
L 313.714352 145.951898 
L 313.800036 145.878358 
L 313.954268 145.65575 
L 314.005678 145.693238 
L 314.297004 145.616627 
L 314.434099 145.520233 
L 314.468373 145.556483 
L 314.502646 145.500134 
L 314.622604 145.37838 
L 314.725425 145.413979 
L 314.742562 145.34841 
L 314.845383 145.149197 
L 315.051025 145.037476 
L 315.222393 145.150996 
L 315.23953 145.137942 
L 315.29094 145.185815 
L 315.359488 145.123007 
L 315.530856 144.982265 
L 315.547993 145.062096 
L 315.633677 144.971356 
L 316.284876 144.82752 
L 316.404834 144.579899 
L 316.473381 144.631081 
L 316.541929 144.6792 
L 316.576202 144.649173 
L 316.627613 144.511898 
L 316.69616 144.538776 
L 316.798981 144.694946 
L 316.816118 144.627555 
L 316.918939 144.480604 
L 316.970349 144.501531 
L 317.07317 144.315878 
L 317.107444 144.383425 
L 317.244538 144.466135 
L 317.261675 144.499855 
L 317.313086 144.395276 
L 317.330223 144.391799 
L 317.433044 144.453098 
L 317.570138 144.58038 
L 317.604412 144.519759 
L 317.672959 144.609509 
L 317.707233 144.682368 
L 317.77578 144.614894 
L 317.844327 144.642411 
L 317.895738 144.533351 
L 317.912875 144.565342 
L 317.998559 144.494324 
L 318.135653 144.503 
L 318.169927 144.457176 
L 318.221338 144.469554 
L 318.375569 144.263821 
L 318.564074 144.377892 
L 318.581211 144.358232 
L 318.649758 144.216253 
L 318.718306 144.321219 
L 318.735442 144.359004 
L 318.752579 144.301032 
L 318.80399 144.325112 
L 318.889674 144.276645 
L 318.906811 144.344732 
L 318.975358 144.38899 
L 319.009632 144.334741 
L 319.026768 144.289699 
L 319.078179 144.424832 
L 319.095316 144.414274 
L 319.181 144.380963 
L 319.318095 144.217913 
L 319.455189 144.310163 
L 319.5066 144.447952 
L 319.55801 144.353844 
L 319.643694 144.225499 
L 319.695105 144.273687 
L 319.900747 144.190319 
L 320.226346 144.307895 
L 320.26062 144.250248 
L 320.329167 144.313811 
L 320.414851 144.364476 
L 320.466262 144.326323 
L 320.534809 144.336191 
L 320.671904 144.45092 
L 320.894683 144.625035 
L 321.134598 144.390258 
L 321.168872 144.431001 
L 321.271693 144.39308 
L 321.391651 144.396981 
L 321.425924 144.411621 
L 321.443061 144.476414 
L 321.648703 144.59107 
L 321.871482 144.312599 
L 322.09426 144.312599 
L 322.111397 144.269249 
L 322.179945 144.373411 
L 322.351313 144.373432 
L 322.454134 144.175815 
L 322.471271 144.254462 
L 322.556955 144.250236 
L 322.539818 144.195465 
L 322.574092 144.234369 
L 322.728323 144.125165 
L 322.74546 144.138186 
L 322.831144 144.088614 
L 322.933965 144.052335 
L 322.951102 144.088922 
L 323.12247 144.021898 
L 323.225291 144.017114 
L 323.242428 143.989111 
L 323.49948 143.974506 
L 323.756533 143.615103 
L 323.790806 143.668773 
L 323.893627 143.530751 
L 323.945038 143.632425 
L 324.339185 143.358377 
L 324.373458 143.423063 
L 324.407732 143.51965 
L 324.493416 143.471192 
L 324.510553 143.479894 
L 324.544827 143.392478 
L 324.681921 143.155838 
L 324.716195 143.174374 
L 325.007521 143.338419 
L 325.28171 143.046859 
L 325.418805 143.066551 
L 325.538763 142.864392 
L 325.555899 142.8862 
L 325.727268 142.808678 
L 325.93291 142.562358 
L 326.052867 142.485142 
L 326.087141 142.567069 
L 326.327057 142.454428 
L 326.498425 142.33263 
L 326.584109 142.351367 
L 326.73834 142.023688 
L 326.755477 142.038075 
L 326.772614 142.084597 
L 326.841161 141.987591 
L 326.943982 142.091486 
L 327.06394 142.234386 
L 327.081077 142.194417 
L 327.252445 142.173758 
L 327.269582 142.229382 
L 327.320993 142.151787 
L 327.355266 142.199788 
L 327.458087 142.0318 
L 327.492361 142.078075 
L 327.732276 142.327413 
L 327.903645 142.217767 
L 327.920781 142.263627 
L 328.006466 142.334881 
L 328.040739 142.270936 
L 328.194971 142.316611 
L 328.349202 142.27237 
L 328.434886 142.191808 
L 328.589118 141.980068 
L 328.657665 142.057072 
L 328.983265 142.212159 
L 329.154633 142.033001 
L 330.045748 142.11156 
L 330.199979 142.001383 
L 330.217116 142.013553 
L 330.696947 142.301855 
L 330.731221 142.23897 
L 330.885452 142.111809 
L 330.902589 142.205362 
L 330.902589 142.205362 
" clip-path="url(#p9ec4d5dec2)" style="fill: none; stroke: #2166ac; stroke-width: 1.5; stroke-linecap: square"/>
   </g>
   <g id="patch_3">
    <path d="M 38.616875 234.31263 
L 38.616875 23.64063 
" style="fill: none; stroke: #000000; stroke-width: 0.8; stroke-linejoin: miter; stroke-linecap: square"/>
   </g>
   <g id="patch_4">
    <path d="M 38.616875 234.31263 
L 345.516875 234.31263 
" style="fill: none; stroke: #000000; stroke-width: 0.8; stroke-linejoin: miter; stroke-linecap: square"/>
   </g>
   <g id="text_17">
    <!-- (a) -->
    <g transform="translate(32.478875 12.718125) scale(0.12 -0.12)">
     <defs>
      <path id="DejaVuSerif-Bold-28" d="M 2694 -997 
Q 1641 -606 1122 122 
Q 603 850 603 1931 
Q 603 3013 1115 3731 
Q 1628 4450 2694 4863 
L 2694 4488 
Q 2200 4188 1983 3598 
Q 1766 3009 1766 1931 
Q 1766 856 1983 267 
Q 2200 -322 2694 -622 
L 2694 -997 
z
" transform="scale(0.015625)"/>
      <path id="DejaVuSerif-Bold-61" d="M 3525 2041 
L 3525 378 
L 4000 378 
L 4000 0 
L 2419 0 
L 2419 422 
Q 2200 159 1931 34 
Q 1663 -91 1319 -91 
Q 809 -91 536 182 
Q 263 456 263 966 
Q 263 1525 655 1803 
Q 1047 2081 1838 2081 
L 2419 2081 
L 2419 2278 
Q 2419 2681 2228 2873 
Q 2038 3066 1638 3066 
Q 1306 3066 1126 2930 
Q 947 2794 872 2484 
L 519 2484 
L 519 3200 
Q 816 3306 1134 3359 
Q 1453 3413 1806 3413 
Q 2697 3413 3111 3081 
Q 3525 2750 3525 2041 
z
M 2419 1044 
L 2419 1709 
L 2003 1709 
Q 1694 1709 1528 1540 
Q 1363 1372 1363 1056 
Q 1363 741 1483 584 
Q 1603 428 1850 428 
Q 2106 428 2262 597 
Q 2419 766 2419 1044 
z
" transform="scale(0.015625)"/>
      <path id="DejaVuSerif-Bold-29" d="M 325 -997 
L 325 -622 
Q 819 -322 1036 267 
Q 1253 856 1253 1931 
Q 1253 3009 1036 3598 
Q 819 4188 325 4488 
L 325 4863 
Q 1391 4450 1905 3731 
Q 2419 3013 2419 1931 
Q 2419 850 1898 122 
Q 1378 -606 325 -997 
z
" transform="scale(0.015625)"/>
     </defs>
     <use xlink:href="#DejaVuSerif-Bold-28"/>
     <use xlink:href="#DejaVuSerif-Bold-61" transform="translate(47.314453 0)"/>
     <use xlink:href="#DejaVuSerif-Bold-29" transform="translate(112.109375 0)"/>
    </g>
   </g>
  </g>
 </g>
 <defs>
  <clipPath id="p9ec4d5dec2">
   <rect x="38.616875" y="23.64063" width="306.9" height="210.672"/>
  </clipPath>
 </defs>
</svg>
